<svg width="81" height="81" viewBox="0 0 81 81" fill="none" xmlns="http://www.w3.org/2000/svg">
<path fill-rule="evenodd" clip-rule="evenodd" d="M5.37478 60.0096C-5.66907 40.8779 0.884838 16.4143 20.0133 5.36859C39.1419 -5.6771 63.6014 0.877904 74.6452 20.0096C85.6891 39.1413 79.1352 63.6049 60.0067 74.6506C40.8782 85.6963 16.4186 79.1413 5.37478 60.0096ZM11.6993 59.58C15.909 65.6862 21.8122 70.0533 28.3999 72.411C29.8782 65.4528 29.175 58.0658 26.0004 51.3218L11.6993 59.58ZM23.2102 46.4882L8.90903 54.7463C5.72664 48.0469 4.89683 40.7501 6.14922 33.8653C12.9134 36.0639 18.958 40.3665 23.2102 46.4882ZM30.8478 48.5227C34.7804 56.6208 35.6301 65.5327 33.7952 73.863C40.6999 75.1344 48.0228 74.3097 54.7443 71.1158L38.9887 43.8218L30.8478 48.5227ZM36.1985 38.9881L28.0576 43.6891C23.0119 36.2338 15.7201 31.0419 7.58964 28.466C9.94108 21.8497 14.3166 15.9191 20.4429 11.6941L36.1985 38.9881ZM43.8215 41.0311L59.5771 68.3251C65.6085 64.1655 69.943 58.3528 72.3197 51.8602C64.2518 49.1381 57.0128 43.8407 51.9593 36.3319L43.8215 41.0311ZM49.169 31.4984L41.0313 36.1974L25.2757 8.90344C31.8929 5.7591 39.0929 4.91103 45.9028 6.09853C44.226 14.4478 45.1938 23.3668 49.169 31.4984ZM56.8056 33.5335C61.0801 39.7341 67.0986 44.1404 73.8115 46.4718C75.1482 39.494 74.3424 32.0755 71.111 25.2729L56.8056 33.5335ZM68.3208 20.4392L54.0153 28.6999C50.7832 21.8971 49.9768 14.4808 51.3145 7.50046C58.0251 9.83143 64.046 14.2387 68.3208 20.4392Z" fill="#3355FF"/>
</svg>
