<svg width="64" height="80" viewBox="0 0 64 80" fill="none" xmlns="http://www.w3.org/2000/svg">
<path fill-rule="evenodd" clip-rule="evenodd" d="M32 0C18.0576 0 6.755 11.3897 6.755 25.4397V33.2258C6.755 34.6676 6.29522 36.1407 5.4773 37.7918C4.88612 38.9853 4.20793 40.0924 3.46824 41.3C3.13911 41.8372 2.79781 42.3944 2.44658 42.9879C1.10396 45.2566 0.333344 47.9094 0.333344 50.735C0.333344 58.0268 5.51794 64.3804 12.8134 65.3998C18.6577 66.2165 26.0895 67.0579 32 67.0579C37.9106 67.0579 45.3423 66.2165 51.1866 65.3998C58.4821 64.3804 63.6667 58.0268 63.6667 50.735C63.6667 47.9094 62.8961 45.2567 61.5535 42.9879C61.2026 42.395 60.8615 41.8383 60.5327 41.3015C59.7931 40.094 59.1139 38.9853 58.5228 37.7919C57.7049 36.1407 57.2451 34.6676 57.2451 33.2258V25.4397C57.2451 11.3897 45.9425 0 32 0ZM12.2937 25.4397C12.2937 14.4722 21.1165 5.58135 32 5.58135C42.8836 5.58135 51.7064 14.4722 51.7064 25.4397V33.2258C51.7064 35.8783 52.5557 38.2427 53.5672 40.2846C54.2759 41.7154 55.1635 43.165 55.9566 44.4604C56.2546 44.9471 56.5396 45.4127 56.7965 45.8467C57.6417 47.2749 58.128 48.9435 58.128 50.735C58.128 55.3718 54.8555 59.2524 50.4259 59.8714C44.6266 60.6817 37.5091 61.4766 32 61.4766C26.491 61.4766 19.3735 60.6817 13.5741 59.8714C9.14456 59.2524 5.872 55.3718 5.872 50.735C5.872 48.9435 6.35832 47.2749 7.20356 45.8467C7.46049 45.4125 7.74528 44.9474 8.04341 44.4604C8.83653 43.1651 9.72415 41.7153 10.4329 40.2846C11.4443 38.2427 12.2937 35.8782 12.2937 33.2258V25.4397Z" fill="#3355FF"/>
<path d="M37.7209 71.325C38.5678 70.0415 40.2867 69.6929 41.5604 70.5462C42.834 71.3996 43.18 73.1318 42.3332 74.4152C40.116 77.7756 36.3164 80 32 80C27.6837 80 23.8841 77.7756 21.6669 74.4152C20.8201 73.1318 21.1661 71.3996 22.4397 70.5462C23.7133 69.6929 25.4323 70.0415 26.2791 71.325C27.5133 73.1956 29.6155 74.4186 32 74.4186C34.3845 74.4186 36.4867 73.1956 37.7209 71.325Z" fill="#3355FF"/>
</svg>
