<svg width="66" height="80" viewBox="0 0 66 80" fill="none" xmlns="http://www.w3.org/2000/svg">
<path d="M15.4476 40C15.4476 38.4587 16.6884 37.2093 18.2191 37.2093H47.781C49.3116 37.2093 50.5524 38.4587 50.5524 40C50.5524 41.5413 49.3116 42.7907 47.781 42.7907H18.2191C16.6884 42.7907 15.4476 41.5413 15.4476 40Z" fill="#3355FF"/>
<path d="M18.2191 55.8139C16.6884 55.8139 15.4476 57.0634 15.4476 58.6046C15.4476 60.1459 16.6884 61.3953 18.2191 61.3953H33C34.5306 61.3953 35.7714 60.1459 35.7714 58.6046C35.7714 57.0634 34.5306 55.8139 33 55.8139H18.2191Z" fill="#3355FF"/>
<path fill-rule="evenodd" clip-rule="evenodd" d="M18.2191 0C8.52515 0 0.666687 7.91311 0.666687 17.6744V62.3256C0.666687 72.0869 8.52515 80 18.2191 80H47.781C57.4749 80 65.3333 72.0869 65.3333 62.3256V27.8106C65.3333 25.4168 64.4999 23.0988 62.978 21.2599L48.4308 3.68183C46.5001 1.34889 43.6401 0 40.6242 0H18.2191ZM6.20954 17.6744C6.20954 10.9956 11.5864 5.5814 18.2191 5.5814H40.6242C40.8569 5.5814 41.0875 5.59905 41.3143 5.63356V17.6744C41.3143 23.3257 45.8639 27.907 51.4762 27.907H59.7905V62.3256C59.7905 69.0044 54.4136 74.4186 47.781 74.4186H18.2191C11.5864 74.4186 6.20954 69.0044 6.20954 62.3256V17.6744ZM56.6448 22.3256L46.8572 10.4987V17.6744C46.8572 20.2432 48.9252 22.3256 51.4762 22.3256H56.6448Z" fill="#3355FF"/>
</svg>
