<svg width="75" height="80" viewBox="0 0 75 80" fill="none" xmlns="http://www.w3.org/2000/svg">
<path d="M13.9963 42.8572C13.9963 44.4351 15.2706 45.7143 16.8424 45.7143H20.6373C22.2092 45.7143 23.4835 44.4351 23.4835 42.8572C23.4835 41.2792 22.2092 40.0001 20.6373 40.0001H16.8424C15.2706 40.0001 13.9963 41.2792 13.9963 42.8572Z" fill="#3355FF"/>
<path d="M35.8168 45.7143C34.2449 45.7143 32.9706 44.4351 32.9706 42.8572C32.9706 41.2792 34.2449 40.0001 35.8168 40.0001H39.6117C41.1836 40.0001 42.4578 41.2792 42.4578 42.8572C42.4578 44.4351 41.1836 45.7143 39.6117 45.7143H35.8168Z" fill="#3355FF"/>
<path d="M51.945 42.8572C51.945 44.4351 53.2193 45.7143 54.7912 45.7143H58.586C60.1579 45.7143 61.4322 44.4351 61.4322 42.8572C61.4322 41.2792 60.1579 40.0001 58.586 40.0001H54.7912C53.2193 40.0001 51.945 41.2792 51.945 42.8572Z" fill="#3355FF"/>
<path d="M16.8424 60.9524C15.2706 60.9524 13.9963 59.6732 13.9963 58.0953C13.9963 56.5173 15.2706 55.2381 16.8424 55.2381H20.6373C22.2092 55.2381 23.4835 56.5173 23.4835 58.0953C23.4835 59.6732 22.2092 60.9524 20.6373 60.9524H16.8424Z" fill="#3355FF"/>
<path d="M32.9706 58.0953C32.9706 59.6732 34.2449 60.9524 35.8168 60.9524H39.6117C41.1836 60.9524 42.4578 59.6732 42.4578 58.0953C42.4578 56.5173 41.1836 55.2381 39.6117 55.2381H35.8168C34.2449 55.2381 32.9706 56.5173 32.9706 58.0953Z" fill="#3355FF"/>
<path d="M54.7912 60.9524C53.2193 60.9524 51.945 59.6732 51.945 58.0953C51.945 56.5173 53.2193 55.2381 54.7912 55.2381H58.586C60.1579 55.2381 61.4322 56.5173 61.4322 58.0953C61.4322 59.6732 60.1579 60.9524 58.586 60.9524H54.7912Z" fill="#3355FF"/>
<path fill-rule="evenodd" clip-rule="evenodd" d="M54.7912 0C53.2193 0 51.945 1.27919 51.945 2.85714V5.71438H23.4835V2.85714C23.4835 1.27919 22.2092 0 20.6373 0C19.0654 0 17.7912 1.27919 17.7912 2.85714V6.23343C8.02091 8.40765 0.714233 17.1568 0.714233 27.6191V58.0953C0.714233 70.1929 10.4836 80 22.5347 80H52.8937C64.9449 80 74.7142 70.1929 74.7142 58.0953V27.6191C74.7142 17.1568 67.4076 8.40765 57.6373 6.23343V2.85714C57.6373 1.27919 56.363 0 54.7912 0ZM17.7912 12.1403C12.0811 13.9016 7.72156 18.7594 6.65689 24.7619H68.7716C67.7069 18.7594 63.3473 13.9016 57.6373 12.1403V14.2857C57.6373 15.8637 56.363 17.1428 54.7912 17.1428C53.2193 17.1428 51.945 15.8637 51.945 14.2857V11.4287H23.4835V14.2857C23.4835 15.8637 22.2092 17.1428 20.6373 17.1428C19.0654 17.1428 17.7912 15.8637 17.7912 14.2857V12.1403ZM6.40654 30.4762V58.0953C6.40654 67.037 13.6274 74.2857 22.5347 74.2857H52.8937C61.8011 74.2857 69.0219 67.037 69.0219 58.0953V30.4762H6.40654Z" fill="#3355FF"/>
</svg>
