<svg width="44" height="44" viewBox="0 0 44 44" fill="none" xmlns="http://www.w3.org/2000/svg">
<path d="M29.0621 30.9693C27.1077 32.9236 22.1028 31.0873 17.8833 26.8677C13.6637 22.6482 11.8274 17.6433 13.7817 15.6889L15.0685 14.4022C15.9568 13.5138 17.4205 13.5373 18.3378 14.4546L20.3309 16.4477C21.2482 17.365 21.2717 18.8287 20.3834 19.7171L20.107 19.9934C19.6274 20.4731 19.5804 21.2468 20.0261 21.7868C20.456 22.3078 20.9194 22.8266 21.4219 23.3291C21.9244 23.8316 22.4432 24.295 22.9641 24.7249C23.5042 25.1705 24.2779 25.1236 24.7575 24.644L25.0339 24.3676C25.9222 23.4793 27.386 23.5028 28.3033 24.4201L30.2964 26.4131C31.2137 27.3304 31.2371 28.7942 30.3488 29.6825L29.0621 30.9693Z" stroke="#3355FF" stroke-width="2"/>
<path d="M27.6265 19.7507C27.3825 19.1555 27.0189 18.5979 26.5356 18.1146C26.0796 17.6586 25.5575 17.3092 25 17.0662" stroke="#3355FF" stroke-width="2" stroke-linecap="round"/>
<path d="M25 13.6634C26.3346 14.1469 27.5869 14.9237 28.6569 15.9936C29.7537 17.0905 30.5424 18.3788 31.0229 19.7511" stroke="#3355FF" stroke-width="2" stroke-linecap="round"/>
<rect x="1" y="1" width="42" height="42" rx="21" stroke="#3355FF" stroke-width="2"/>
</svg>
